<svg version="1.1" viewBox="0 0 100 100" xmlns="http://www.w3.org/2000/svg" xmlns:cc="http://creativecommons.org/ns#"
  xmlns:dc="http://purl.org/dc/elements/1.1/" xmlns:rdf="http://www.w3.org/1999/02/22-rdf-syntax-ns#">
  <metadata>
    <rdf:RDF>
      <cc:Work rdf:about="">
        <dc:format>image/svg+xml</dc:format>
        <dc:type rdf:resource="http://purl.org/dc/dcmitype/StillImage" />
        <dc:title />
      </cc:Work>
    </rdf:RDF>
  </metadata>
  <g transform="translate(377.83 -78.047)">
    <g transform="matrix(1.136 0 0 1.136 51.434 -24.264)" fill="none" stroke="#000" stroke-linecap="round"
      stroke-linejoin="round">
      <path transform="matrix(1.3671 0 0 1.2562 327.7 -70.559)"
        d="m-453.57 162.9c0 18.245-13.591 33.036-30.357 33.036s-30.357-14.791-30.357-33.036 13.591-33.036 30.357-33.036 30.357 14.791 30.357 33.036z"
        stroke-width="3.8369" />
      <path
        d="m-334.64 132.18c-5.4884 10.453 2.3355 16.674 7.1429 16.607 10.279-0.14393 13.837-10.49 13.929-15 0.17303-8.4798-6.463-20.862-19.643-20.893-6.7796-0.0158-23.316 4.6008-23.214 23.929 0.13984 26.488 27.404 37.307 43.214 33.036"
        stroke-width="5.0282" />
    </g>
  </g>
</svg>
