<svg xmlns="http://www.w3.org/2000/svg" xmlns:xlink="http://www.w3.org/1999/xlink" xmlns:cc="http://creativecommons.org/ns#" xmlns:dc="http://purl.org/dc/elements/1.1/" xmlns:rdf="http://www.w3.org/1999/02/22-rdf-syntax-ns#"><defs>
<linearGradient id="a" x1="13.146" y1="-186.913" x2="20.701" y2="-188.679" gradientTransform="matrix(1, 0, 0, -1, 0, -170)" gradientUnits="userSpaceOnUse">
<stop offset="0" stop-color="#ff6533"/>
<stop offset="0.157" stop-color="#ff5633"/>
<stop offset="0.434" stop-color="#ff4333"/>
<stop offset="0.714" stop-color="#ff3733"/>
<stop offset="1" stop-color="#f33"/>
</linearGradient>
<linearGradient id="b" x1="11.963" y1="-184.409" x2="25.504" y2="-194.908" gradientTransform="matrix(1, 0, 0, -1, 0, -170)" gradientUnits="userSpaceOnUse">
<stop offset="0" stop-color="#bf3338"/>
<stop offset="1" stop-color="#f33"/>
</linearGradient>
<linearGradient id="c" x1="12.406" y1="-186.476" x2="14.368" y2="-188.536" xlink:href="#a"/>
<linearGradient id="d" x1="15.974" y1="-190.023" x2="15.385" y2="-181.584" xlink:href="#a"/>
<linearGradient id="e" x1="13.423" y1="-186.331" x2="16.211" y2="-188.227" gradientTransform="matrix(1, 0, 0, -1, 0, -170)" gradientUnits="userSpaceOnUse">
<stop offset="0" stop-color="#fbb040"/>
<stop offset="1" stop-color="#fb8840"/>
</linearGradient>
<linearGradient id="f" x1="16.279" y1="-175.614" x2="13.434" y2="-206.915" gradientTransform="matrix(1, 0, 0, -1, 0, -170)" gradientUnits="userSpaceOnUse">
<stop offset="0" stop-color="#ffffff"/>
<stop offset="1" stop-color="#ffffff" stop-opacity="0"/>
</linearGradient>
</defs><symbol id="icon_arrow_up_right" viewBox="0 0 24 24"><g fill="none">
<g id="SVGRepo_bgCarrier" stroke-width="0"/>
<g id="SVGRepo_tracerCarrier" stroke-linecap="round" stroke-linejoin="round"/>
<g id="SVGRepo_iconCarrier"> <path d="M20 4L12 12M20 4V8.5M20 4H15.5M19 12.5V16.8C19 17.9201 19 18.4802 18.782 18.908C18.5903 19.2843 18.2843 19.5903 17.908 19.782C17.4802 20 16.9201 20 15.8 20H7.2C6.0799 20 5.51984 20 5.09202 19.782C4.71569 19.5903 4.40973 19.2843 4.21799 18.908C4 18.4802 4 17.9201 4 16.8V8.2C4 7.0799 4 6.51984 4.21799 6.09202C4.40973 5.71569 4.71569 5.40973 5.09202 5.21799C5.51984 5 6.07989 5 7.2 5H11.5" stroke="#000000" stroke-width="2" stroke-linecap="round" stroke-linejoin="round"/> </g>
</g></symbol><symbol id="icon_css_3" viewBox="-52.5 0 361 361" preserveAspectRatio="xMidYMid"><g fill="#000000">
<g id="SVGRepo_bgCarrier" stroke-width="0"/>
<g id="SVGRepo_tracerCarrier" stroke-linecap="round" stroke-linejoin="round"/>
<g id="SVGRepo_iconCarrier"> <g> <path d="M127.843868,360.087912 L23.6617143,331.166242 L0.445186813,70.7657143 L255.554813,70.7657143 L232.31367,331.125451 L127.843868,360.087912 L127.843868,360.087912 Z" fill="#264DE4"> </path> <path d="M212.416703,314.546637 L232.277802,92.0573187 L128,92.0573187 L128,337.950242 L212.416703,314.546637 L212.416703,314.546637 Z" fill="#2965F1"> </path> <path d="M53.6685714,188.636132 L56.530989,220.572835 L128,220.572835 L128,188.636132 L53.6685714,188.636132 L53.6685714,188.636132 Z" fill="#EBEBEB"> </path> <path d="M47.917011,123.994725 L50.8202198,155.932132 L128,155.932132 L128,123.994725 L47.917011,123.994725 L47.917011,123.994725 Z" fill="#EBEBEB"> </path> <path d="M128,271.580132 L127.860044,271.617407 L92.2915165,262.013187 L90.0177582,236.54189 L57.957978,236.54189 L62.4323516,286.687648 L127.853011,304.848879 L128,304.808088 L128,271.580132 L128,271.580132 Z" fill="#EBEBEB"> </path> <path d="M60.4835165,0 L99.1648352,0 L99.1648352,16.1758242 L76.6593407,16.1758242 L76.6593407,32.3516484 L99.1648352,32.3516484 L99.1648352,48.5274725 L60.4835165,48.5274725 L60.4835165,0 L60.4835165,0 Z" fill="#000000"> </path> <path d="M106.901099,0 L145.582418,0 L145.582418,14.0659341 L123.076923,14.0659341 L123.076923,16.8791209 L145.582418,16.8791209 L145.582418,49.2307692 L106.901099,49.2307692 L106.901099,34.4615385 L129.406593,34.4615385 L129.406593,31.6483516 L106.901099,31.6483516 L106.901099,0 L106.901099,0 Z" fill="#000000"> </path> <path d="M153.318681,0 L192,0 L192,14.0659341 L169.494505,14.0659341 L169.494505,16.8791209 L192,16.8791209 L192,49.2307692 L153.318681,49.2307692 L153.318681,34.4615385 L175.824176,34.4615385 L175.824176,31.6483516 L153.318681,31.6483516 L153.318681,0 L153.318681,0 Z" fill="#000000"> </path> <path d="M202.126769,188.636132 L207.892396,123.994725 L127.889582,123.994725 L127.889582,155.932132 L172.892132,155.932132 L169.98611,188.636132 L127.889582,188.636132 L127.889582,220.572835 L167.216527,220.572835 L163.509451,261.992791 L127.889582,271.606857 L127.889582,304.833407 L193.362286,286.687648 L193.842637,281.291956 L201.347516,197.212132 L202.126769,188.636132 L202.126769,188.636132 Z" fill="#FFFFFF"> </path> </g> </g>
</g></symbol><symbol id="icon_django" viewBox="0 0 64 64"><g fill="none">
<g id="SVGRepo_bgCarrier" stroke-width="0"/>
<g id="SVGRepo_tracerCarrier" stroke-linecap="round" stroke-linejoin="round"/>
<g id="SVGRepo_iconCarrier">
<path fill-rule="evenodd" clip-rule="evenodd" d="M10.633 32.181c-.009 1.587 1.154 2.533 3.01 2.103v-4.205c-1.879-.572-3.003.586-3.01 2.102zM13.7 24h2.556v12.102c-2.45.4-4.798.655-6.477-.284-2.162-1.21-2.336-5.05-.625-6.761.868-.868 2.614-1.478 4.489-1.08v-3.806c-.005-.081-.01-.162.056-.171zM20.405 26.67h-2.557V24h2.557v2.67zM51.085 34.397c2.787 1.083 3.096-4.989.284-4.431-1.746.346-1.69 3.885-.284 4.431zm.114-6.534c2.128-.227 3.734.712 4.375 2.16 1.093 2.469-.06 5.302-1.819 6.135-.91.432-1.865.473-2.727.398-2.664-.232-4.344-2.947-3.409-5.965.147-.473.311-.762.398-.91.58-.984 1.557-1.644 3.182-1.818zM23.927 33.431c-.707 1.189 1.07 1.474 2.216 1.137v-1.761c-.88.122-1.883.065-2.216.624zm4.489 2.784c-2.112.122-5.322.841-6.477-.568-.679-.828-.606-2.407 0-3.181.783-1.001 2.492-1.22 4.034-1.364.14-.345.045-.906-.114-1.136-1.41-.36-2.812.197-3.807.625v-1.989c1.503-.69 4.982-1.417 6.023.17.547.834.34 2.288.34 3.58v3.863zM37.393 36.33h-2.557v-3.296c0-1.085.175-2.461-.398-2.898-.449-.342-1.514-.17-2.159 0v6.193h-2.557v-7.897c2.614-.68 7.332-1.407 7.67 1.875.168 1.618-.123 4.045 0 6.022zM41.2 33.602c.43.696 1.594.957 2.556.511a81.771 81.771 0 0 1-.057-4.09c-2.21-.584-3.526 1.918-2.5 3.579zm6.42-5.398c-.228.682-.561 1.258-.853 1.875-.263.06-.492-.104-.625 0-.058 2.77.59 6.524-.511 8.523-.663 1.203-1.884 1.975-3.75 2.102a7.634 7.634 0 0 1-3.409-.511v-2.387c1.166.681 4.113 1.236 4.943-.17.244-.414.229-.842.34-1.477-.533.028-1.052.275-1.704.284-2.679.035-4.337-2.098-3.693-5.057.25-1.144.92-2.066 1.819-2.613 1.865-1.138 4.734-1.051 7.442-.569z" fill="#000000"/>
<path fill-rule="evenodd" clip-rule="evenodd" d="M20.405 28.023c-.003 1.882-.003 3.235-.003 5.522-.108 2.248-.083 4.038-.906 5.113-.163.212-.507.522-.796.739-.242.182-.703.552-.965.568-.265.016-.943-.367-1.25-.511-.404-.19-.777-.442-1.194-.568.973-.603 1.896-1.055 2.273-2.273.328-1.06.284-2.595.284-4.09 0-1.478.007-3.196.007-4.5h2.55z" fill="#000000"/>
</g>
</g></symbol><symbol id="icon_email" viewBox="0 0 24 24"><g data-name="8. Mail" id="_8._Mail"><path d="M21,4H3A3,3,0,0,0,0,7V19a3,3,0,0,0,3,3H21a3,3,0,0,0,3-3V7A3,3,0,0,0,21,4ZM2,9.822,7.933,13.6,2,18.683Zm7.651,4.937c.015-.013.021-.032.036-.046l1.239.789a2.01,2.01,0,0,0,2.148,0l1.24-.789c.014.014.02.033.036.046L20.464,20H3.537ZM22,18.683,16.067,13.6,22,9.822ZM3,6H21a1,1,0,0,1,1,1v.451L12,13.814,2,7.451V7A1,1,0,0,1,3,6Z"/></g></symbol><symbol id="icon_facebook" viewBox="0 0 32 32"><g fill="currentColor">
  <path d="M13.04 29.333L13 17.666H8V12.666H13V9.33302C13 4.84002 15.787 2.66602 19.8 2.66602C21.72 2.66602 23.373 2.79902 23.853 2.86602V7.57302H21.066C18.893 7.57302 18.466 8.61302 18.466 10.133V12.666H24.666L22.999 17.666H18.466V29.333H13.039H13.04Z" fill="currentColor"/>
</g></symbol><symbol id="icon_github" viewBox="0 0 438.549 438.549"><g style="enable-background:new 0 0 438.549 438.549;">
<g>
	<path d="M409.132,114.573c-19.608-33.596-46.205-60.194-79.798-79.8C295.736,15.166,259.057,5.365,219.271,5.365
		c-39.781,0-76.472,9.804-110.063,29.408c-33.596,19.605-60.192,46.204-79.8,79.8C9.803,148.168,0,184.854,0,224.63
		c0,47.78,13.94,90.745,41.827,128.906c27.884,38.164,63.906,64.572,108.063,79.227c5.14,0.954,8.945,0.283,11.419-1.996
		c2.475-2.282,3.711-5.14,3.711-8.562c0-0.571-0.049-5.708-0.144-15.417c-0.098-9.709-0.144-18.179-0.144-25.406l-6.567,1.136
		c-4.187,0.767-9.469,1.092-15.846,1c-6.374-0.089-12.991-0.757-19.842-1.999c-6.854-1.231-13.229-4.086-19.13-8.559
		c-5.898-4.473-10.085-10.328-12.56-17.556l-2.855-6.57c-1.903-4.374-4.899-9.233-8.992-14.559
		c-4.093-5.331-8.232-8.945-12.419-10.848l-1.999-1.431c-1.332-0.951-2.568-2.098-3.711-3.429c-1.142-1.331-1.997-2.663-2.568-3.997
		c-0.572-1.335-0.098-2.43,1.427-3.289c1.525-0.859,4.281-1.276,8.28-1.276l5.708,0.853c3.807,0.763,8.516,3.042,14.133,6.851
		c5.614,3.806,10.229,8.754,13.846,14.842c4.38,7.806,9.657,13.754,15.846,17.847c6.184,4.093,12.419,6.136,18.699,6.136
		c6.28,0,11.704-0.476,16.274-1.423c4.565-0.952,8.848-2.383,12.847-4.285c1.713-12.758,6.377-22.559,13.988-29.41
		c-10.848-1.14-20.601-2.857-29.264-5.14c-8.658-2.286-17.605-5.996-26.835-11.14c-9.235-5.137-16.896-11.516-22.985-19.126
		c-6.09-7.614-11.088-17.61-14.987-29.979c-3.901-12.374-5.852-26.648-5.852-42.826c0-23.035,7.52-42.637,22.557-58.817
		c-7.044-17.318-6.379-36.732,1.997-58.24c5.52-1.715,13.706-0.428,24.554,3.853c10.85,4.283,18.794,7.952,23.84,10.994
		c5.046,3.041,9.089,5.618,12.135,7.708c17.705-4.947,35.976-7.421,54.818-7.421s37.117,2.474,54.823,7.421l10.849-6.849
		c7.419-4.57,16.18-8.758,26.262-12.565c10.088-3.805,17.802-4.853,23.134-3.138c8.562,21.509,9.325,40.922,2.279,58.24
		c15.036,16.18,22.559,35.787,22.559,58.817c0,16.178-1.958,30.497-5.853,42.966c-3.9,12.471-8.941,22.457-15.125,29.979
		c-6.191,7.521-13.901,13.85-23.131,18.986c-9.232,5.14-18.182,8.85-26.84,11.136c-8.662,2.286-18.415,4.004-29.263,5.146
		c9.894,8.562,14.842,22.077,14.842,40.539v60.237c0,3.422,1.19,6.279,3.572,8.562c2.379,2.279,6.136,2.95,11.276,1.995
		c44.163-14.653,80.185-41.062,108.068-79.226c27.88-38.161,41.825-81.126,41.825-128.906
		C438.536,184.851,428.728,148.168,409.132,114.573z"/>
</g>
<g>
</g>
<g>
</g>
<g>
</g>
<g>
</g>
<g>
</g>
<g>
</g>
<g>
</g>
<g>
</g>
<g>
</g>
<g>
</g>
<g>
</g>
<g>
</g>
<g>
</g>
<g>
</g>
<g>
</g>
</g></symbol><symbol id="icon_html_5" viewBox="-52.5 0 361 361" preserveAspectRatio="xMidYMid"><g fill="#000000">
<g id="SVGRepo_bgCarrier" stroke-width="0"/>
<g id="SVGRepo_tracerCarrier" stroke-linecap="round" stroke-linejoin="round"/>
<g id="SVGRepo_iconCarrier"> <g> <path d="M255.554813,70.7657143 L232.31367,331.125451 L127.843868,360.087912 L23.6617143,331.166242 L0.445186813,70.7657143 L255.554813,70.7657143 L255.554813,70.7657143 Z" fill="#E44D26"> </path> <path d="M128,337.950242 L212.416703,314.546637 L232.277802,92.0573187 L128,92.0573187 L128,337.950242 L128,337.950242 Z" fill="#F16529"> </path> <path d="M82.8202198,155.932132 L128,155.932132 L128,123.994725 L47.917011,123.994725 L48.6814945,132.562989 L56.530989,220.572835 L128,220.572835 L128,188.636132 L85.7389011,188.636132 L82.8202198,155.932132 L82.8202198,155.932132 Z" fill="#EBEBEB"> </path> <path d="M90.0177582,236.54189 L57.957978,236.54189 L62.4323516,286.687648 L127.853011,304.848879 L128,304.808088 L128,271.580132 L127.860044,271.617407 L92.2915165,262.013187 L90.0177582,236.54189 L90.0177582,236.54189 Z" fill="#EBEBEB"> </path> <path d="M24.1807473,0 L40.4107253,0 L40.4107253,16.0351648 L55.2573187,16.0351648 L55.2573187,0 L71.488,0 L71.488,48.5584176 L55.258022,48.5584176 L55.258022,32.2981978 L40.4114286,32.2981978 L40.4114286,48.5584176 L24.1814505,48.5584176 L24.1814505,0 L24.1807473,0 L24.1807473,0 Z" fill="#000000"> </path> <path d="M92.8309451,16.1026813 L78.5427692,16.1026813 L78.5427692,0 L123.356835,0 L123.356835,16.1026813 L109.06233,16.1026813 L109.06233,48.5584176 L92.8316484,48.5584176 L92.8316484,16.1026813 L92.8309451,16.1026813 L92.8309451,16.1026813 Z" fill="#000000"> </path> <path d="M130.469275,0 L147.392703,0 L157.802901,17.061978 L168.202549,0 L185.132308,0 L185.132308,48.5584176 L168.969143,48.5584176 L168.969143,24.4901978 L157.802901,41.7554286 L157.523692,41.7554286 L146.349714,24.4901978 L146.349714,48.5584176 L130.469275,48.5584176 L130.469275,0 L130.469275,0 Z" fill="#000000"> </path> <path d="M193.20967,0 L209.444571,0 L209.444571,32.5077802 L232.268659,32.5077802 L232.268659,48.5584176 L193.20967,48.5584176 L193.20967,0 L193.20967,0 Z" fill="#000000"> </path> <path d="M127.889582,220.572835 L167.216527,220.572835 L163.509451,261.992791 L127.889582,271.606857 L127.889582,304.833407 L193.362286,286.687648 L193.842637,281.291956 L201.347516,197.212132 L202.126769,188.636132 L127.889582,188.636132 L127.889582,220.572835 L127.889582,220.572835 Z" fill="#FFFFFF"> </path> <path d="M127.889582,155.854066 L127.889582,155.932132 L205.032791,155.932132 L205.673495,148.753582 L207.128615,132.562989 L207.892396,123.994725 L127.889582,123.994725 L127.889582,155.854066 L127.889582,155.854066 Z" fill="#FFFFFF"> </path> </g> </g>
</g></symbol><symbol id="icon_instagram" viewBox="0 0 32 32"><g fill="currentColor">
  <path d="M17.36 2.66699C19.76 2.66699 20.267 2.69399 21.493 2.74699C22.906 2.81399 23.88 3.03999 24.72 3.37399C25.6 3.70699 26.347 4.17399 27.08 4.90699C27.827 5.63999 28.28 6.38699 28.627 7.26699C28.96 8.10699 29.174 9.07999 29.24 10.507C29.307 11.774 29.32 12.267 29.32 14.934V17.067C29.32 19.734 29.307 20.227 29.24 21.494C29.217 22.659 28.994 23.764 28.604 24.788L28.626 24.721C28.279 25.601 27.826 26.348 27.093 27.081C26.346 27.828 25.6 28.281 24.72 28.628C23.88 28.961 22.907 29.175 21.493 29.241C20.226 29.308 19.72 29.321 17.053 29.321H14.933C12.266 29.321 11.773 29.308 10.493 29.241C9.32802 29.218 8.22302 28.995 7.19902 28.605L7.26602 28.627C6.34302 28.274 5.55602 27.753 4.90702 27.094L4.90602 27.093C4.24002 26.441 3.71402 25.649 3.37402 24.764L3.35902 24.719C2.99202 23.763 2.76902 22.657 2.74602 21.502V21.492C2.69302 20.45 2.66302 19.229 2.66302 18.002C2.66302 17.776 2.66402 17.55 2.66602 17.325V17.359V14.626C2.66602 12.226 2.69302 11.719 2.74602 10.493C2.81302 9.07999 3.03902 8.10599 3.35902 7.26599C3.70602 6.38599 4.15902 5.63899 4.90602 4.90599C5.55102 4.23899 6.34002 3.71599 7.22302 3.38699L7.26602 3.37299C8.22102 3.00199 9.32603 2.77399 10.481 2.74699H10.493C11.72 2.69399 12.226 2.66699 14.626 2.66699H17.36ZM17.387 5.06699H14.6C12.293 5.06699 11.8 5.09399 10.6 5.14699C9.30702 5.19999 8.60003 5.41399 8.13303 5.59999C7.50603 5.83999 7.06602 6.13299 6.60002 6.59999C6.13402 7.06699 5.84002 7.50699 5.60002 8.13299C5.42702 8.59999 5.20002 9.30599 5.14702 10.613C5.09402 11.813 5.06702 12.293 5.06702 14.613V17.386C5.06702 19.706 5.09402 20.186 5.14702 21.386C5.20002 22.679 5.41402 23.386 5.60002 23.853C5.84002 24.48 6.13302 24.92 6.60002 25.386C7.06702 25.852 7.50703 26.146 8.13303 26.386C8.60003 26.573 9.30602 26.786 10.613 26.839C11.906 26.906 12.373 26.919 15.253 26.919H16.733C19.626 26.919 20.08 26.906 21.386 26.839C22.679 26.786 23.386 26.572 23.853 26.386C24.48 26.146 24.92 25.853 25.386 25.386C25.852 24.919 26.146 24.479 26.386 23.853C26.573 23.386 26.786 22.68 26.839 21.386C26.906 20.079 26.919 19.626 26.919 16.733V15.266C26.919 12.373 26.906 11.906 26.839 10.599C26.786 9.30599 26.572 8.59899 26.386 8.13199C26.16 7.53099 25.819 7.01799 25.387 6.59999L25.386 6.59899C24.966 6.16599 24.454 5.82499 23.881 5.60799L23.853 5.59899C23.121 5.32299 22.275 5.15799 21.391 5.14599H21.386C20.358 5.09399 19.155 5.06399 17.944 5.06399C17.748 5.06399 17.552 5.06499 17.356 5.06599H17.386L17.387 5.06699ZM16 9.14699C19.781 9.14699 22.847 12.212 22.847 15.994C22.847 19.776 19.782 22.841 16 22.841C12.219 22.841 9.15302 19.776 9.15302 15.994C9.15302 12.212 12.218 9.14699 16 9.14699ZM16 11.547C13.544 11.547 11.553 13.538 11.553 15.994C11.553 18.45 13.544 20.441 16 20.441C18.456 20.441 20.447 18.45 20.447 15.994C20.447 13.538 18.456 11.547 16 11.547ZM23.107 7.27999C23.991 7.27999 24.707 7.99599 24.707 8.87999C24.707 9.76399 23.991 10.48 23.107 10.48C22.223 10.48 21.507 9.76399 21.507 8.87999C21.507 7.99599 22.223 7.27999 23.107 7.27999Z" fill="currentColor"/>
</g></symbol><symbol id="icon_js" viewBox="0 0 32 32"><g fill="#000000">
<g id="SVGRepo_bgCarrier" stroke-width="0"/>
<g id="SVGRepo_tracerCarrier" stroke-linecap="round" stroke-linejoin="round"/>
<g id="SVGRepo_iconCarrier">
<title>file_type_js_official</title>
<rect x="2" y="2" width="28" height="28" style="fill:#f5de19"/>
<path d="M20.809,23.875a2.866,2.866,0,0,0,2.6,1.6c1.09,0,1.787-.545,1.787-1.3,0-.9-.716-1.222-1.916-1.747l-.658-.282c-1.9-.809-3.16-1.822-3.16-3.964,0-1.973,1.5-3.476,3.853-3.476a3.889,3.889,0,0,1,3.742,2.107L25,18.128A1.789,1.789,0,0,0,23.311,17a1.145,1.145,0,0,0-1.259,1.128c0,.789.489,1.109,1.618,1.6l.658.282c2.236.959,3.5,1.936,3.5,4.133,0,2.369-1.861,3.667-4.36,3.667a5.055,5.055,0,0,1-4.795-2.691Zm-9.295.228c.413.733.789,1.353,1.693,1.353.864,0,1.41-.338,1.41-1.653V14.856h2.631v8.982c0,2.724-1.6,3.964-3.929,3.964a4.085,4.085,0,0,1-3.947-2.4Z"/>
</g>
</g></symbol><symbol id="icon_link" viewBox="0 0 512 512">
  <path class="st0" d="M509.681 102.798c-4.641-24-16.344-47.141-34.875-65.578-12.344-12.36-26.719-21.719-42.016-27.922-22.984-9.297-48.047-11.609-72.047-7-23.953 4.641-47.047 16.391-65.578 34.922l-98.578 98.594c-.516.484-.984 1-1.438 1.531.172-.031.328-.094.5-.094 28.969-5.797 58.734-3.094 86.125 7.828.141.031.297.125.438.172l60.516-60.516c5.906-5.891 12.578-10.203 19.781-13.109 10.719-4.375 22.609-5.484 33.922-3.266 11.359 2.188 21.984 7.594 30.813 16.375 5.906 5.906 10.234 12.578 13.156 19.766 4.375 10.719 5.469 22.625 3.266 33.953-2.219 11.344-7.594 21.969-16.422 30.797l-98.609 98.625c-5.891 5.906-12.547 10.234-19.734 13.156-10.75 4.359-22.672 5.438-33.984 3.266-11.297-2.219-21.953-7.594-30.813-16.422-4.766-4.797-8.484-10.078-11.297-15.75-.281-.063-.578-.156-.875-.203-6.578-1.234-13.625-.547-19.797 2.031a35.114 35.114 0 0 0-11.484 7.734l-1.922 1.953c-10 12.125-17.875 29.266-2.109 51.828 12.328 12.297 26.672 21.656 42 27.859 22.984 9.328 47.984 11.609 71.984 6.969 23.969-4.609 47.063-16.328 65.594-34.891l98.609-98.594c12.313-12.328 21.688-26.719 27.891-42.047 9.311-22.952 11.608-47.983 6.983-71.967z"/>
  <path class="st0" d="M230.259 366.907c-.188-.094-.313-.125-.469-.188l-60.516 60.531c-5.891 5.906-12.563 10.203-19.734 13.156-10.75 4.375-22.641 5.438-33.953 3.266-11.328-2.219-21.984-7.594-30.813-16.422-5.906-5.922-10.219-12.563-13.156-19.766-4.359-10.719-5.453-22.609-3.25-33.953 2.188-11.328 7.578-21.953 16.406-30.797l98.625-98.641a59.051 59.051 0 0 1 19.734-13.109c10.734-4.406 22.609-5.469 33.969-3.297 11.313 2.234 21.953 7.594 30.781 16.406 4.797 4.781 8.516 10.109 11.344 15.781.266.078.563.141.859.219 6.594 1.203 13.641.484 19.766-2.047 4.313-1.797 8.172-4.406 11.516-7.781l1.922-1.922c10-12.109 17.844-29.281 2.109-51.828a126.698 126.698 0 0 0-41.984-27.859c-23-9.297-48-11.609-72.031-6.984-23.969 4.625-47.047 16.391-65.594 34.906l-98.578 98.625a125.34 125.34 0 0 0-27.891 42.031c-9.328 22.953-11.641 47.984-6.984 71.953a126.591 126.591 0 0 0 34.875 65.594 126.747 126.747 0 0 0 42.031 27.938c22.984 9.313 48 11.594 72 6.953a126.075 126.075 0 0 0 65.578-34.891l98.609-98.641c.516-.453.984-1 1.453-1.453-.156 0-.344.063-.5.063-28.984 5.767-58.749 3.079-86.124-7.843z"/>
</symbol><symbol id="icon_map" viewBox="0 0 64 64"><g enable-background="new 0 0 64 64"><g id="Glyph_copy_2"><path d="M42.138,23.162c0-5.566-4.548-10.094-10.138-10.094s-10.138,4.528-10.138,10.094S26.41,33.256,32,33.256   S42.138,28.728,42.138,23.162z"/><path d="M31.995,63.996l4.109-5.375c4.289-5.678,18.282-25.024,18.282-35.601C54.387,9.253,45.391,0.004,32,0.004   S9.613,9.253,9.613,23.021c0,11.39,16.432,33.166,18.301,35.605L31.995,63.996z M17.862,23.162c0-7.771,6.342-14.094,14.138-14.094   s14.138,6.323,14.138,14.094S39.796,37.256,32,37.256S17.862,30.934,17.862,23.162z"/></g></g></symbol><symbol id="icon_phone" viewBox="0 0 512 512"><g style="enable-background:new 0 0 512 512;">
<g>
	<path d="M256,32c123.5,0,224,100.5,224,224S379.5,480,256,480S32,379.5,32,256S132.5,32,256,32 M256,0C114.625,0,0,114.625,0,256
		s114.625,256,256,256s256-114.625,256-256S397.375,0,256,0L256,0z M398.719,341.594l-1.438-4.375
		c-3.375-10.062-14.5-20.562-24.75-23.375L334.688,303.5c-10.25-2.781-24.875,0.969-32.405,8.5l-13.688,13.688
		c-49.75-13.469-88.781-52.5-102.219-102.25l13.688-13.688c7.5-7.5,11.25-22.125,8.469-32.406L198.219,139.5
		c-2.781-10.25-13.344-21.375-23.406-24.75l-4.313-1.438c-10.094-3.375-24.5,0.031-32,7.563l-20.5,20.5
		c-3.656,3.625-6,14.031-6,14.063c-0.688,65.063,24.813,127.719,70.813,173.75c45.875,45.875,108.313,71.345,173.156,70.781
		c0.344,0,11.063-2.281,14.719-5.938l20.5-20.5C398.688,366.062,402.062,351.656,398.719,341.594z"/>
</g>
<g>
</g>
<g>
</g>
<g>
</g>
<g>
</g>
<g>
</g>
<g>
</g>
<g>
</g>
<g>
</g>
<g>
</g>
<g>
</g>
<g>
</g>
<g>
</g>
<g>
</g>
<g>
</g>
<g>
</g>
</g></symbol><symbol id="icon_pinterest" viewBox="0 0 32 32"><g fill="currentColor">
  <path d="M16 2.66699C8.65699 2.69399 2.71399 8.65299 2.71399 16C2.71399 21.599 6.16599 26.393 11.057 28.368L11.146 28.4C11.013 27.347 10.919 25.733 11.186 24.573L12.746 17.946C12.746 17.946 12.346 17.146 12.346 15.973C12.346 14.12 13.426 12.746 14.773 12.746C15.906 12.746 16.466 13.599 16.466 14.613C16.466 15.76 15.733 17.466 15.346 19.053C15.026 20.386 16.013 21.466 17.333 21.466C19.706 21.466 21.52 18.973 21.52 15.373C21.52 12.173 19.227 9.95999 15.947 9.95999C15.871 9.95599 15.783 9.95399 15.694 9.95399C12.505 9.95399 9.92099 12.539 9.92099 15.727C9.92099 15.729 9.92099 15.731 9.92099 15.733C9.92099 16.88 10.361 18.106 10.908 18.773C11.015 18.906 11.028 19.026 10.988 19.16L10.615 20.667C10.562 20.907 10.415 20.974 10.175 20.854C8.49499 20.067 7.45499 17.654 7.45499 15.681C7.45499 11.481 10.522 7.62799 16.282 7.62799C20.895 7.62799 24.509 10.908 24.509 15.321C24.509 19.921 21.602 23.614 17.576 23.614C16.243 23.614 14.963 22.907 14.536 22.081L13.696 25.241C13.265 26.578 12.704 27.739 12.008 28.804L12.042 28.748C13.212 29.12 14.558 29.335 15.953 29.335C23.317 29.335 29.286 23.365 29.286 16.002C29.286 8.65499 23.344 2.69599 16.004 2.66899H16.001L16 2.66699Z" fill="currentColor"/>
</g></symbol><symbol id="icon_react" viewBox="0 -14 256 256" preserveAspectRatio="xMidYMid"><g fill="#000000">
<g id="SVGRepo_bgCarrier" stroke-width="0"/>
<g id="SVGRepo_tracerCarrier" stroke-linecap="round" stroke-linejoin="round"/>
<g id="SVGRepo_iconCarrier"> <g> <path d="M210.483381,73.8236374 C207.827698,72.9095503 205.075867,72.0446761 202.24247,71.2267368 C202.708172,69.3261098 203.135596,67.4500894 203.515631,65.6059664 C209.753843,35.3248922 205.675082,10.9302478 191.747328,2.89849283 C178.392359,-4.80289661 156.551327,3.22703567 134.492936,22.4237776 C132.371761,24.2697233 130.244662,26.2241201 128.118477,28.2723861 C126.701777,26.917204 125.287358,25.6075897 123.876584,24.3549348 C100.758745,3.82852863 77.5866802,-4.82157937 63.6725966,3.23341515 C50.3303869,10.9571328 46.3792156,33.8904224 51.9945178,62.5880206 C52.5367729,65.3599011 53.1706189,68.1905639 53.8873982,71.068617 C50.6078941,71.9995641 47.4418534,72.9920277 44.4125156,74.0478303 C17.3093297,83.497195 0,98.3066828 0,113.667995 C0,129.533287 18.5815786,145.446423 46.8116526,155.095373 C49.0394553,155.856809 51.3511025,156.576778 53.7333796,157.260293 C52.9600965,160.37302 52.2875179,163.423318 51.7229345,166.398431 C46.3687351,194.597975 50.5500231,216.989464 63.8566899,224.664425 C77.6012619,232.590464 100.66852,224.443422 123.130185,204.809231 C124.905501,203.257196 126.687196,201.611293 128.472081,199.886102 C130.785552,202.113904 133.095375,204.222319 135.392897,206.199955 C157.14963,224.922338 178.637969,232.482469 191.932332,224.786092 C205.663234,216.837268 210.125675,192.78347 204.332202,163.5181 C203.88974,161.283006 203.374826,158.99961 202.796573,156.675661 C204.416503,156.196743 206.006814,155.702335 207.557482,155.188332 C236.905331,145.46465 256,129.745175 256,113.667995 C256,98.2510906 238.132466,83.3418093 210.483381,73.8236374 L210.483381,73.8236374 Z M204.118035,144.807565 C202.718197,145.270987 201.281904,145.718918 199.818271,146.153177 C196.578411,135.896354 192.205739,124.989735 186.854729,113.72131 C191.961041,102.721277 196.164656,91.9540963 199.313837,81.7638014 C201.93261,82.5215915 204.474374,83.3208483 206.923636,84.1643056 C230.613348,92.3195488 245.063763,104.377206 245.063763,113.667995 C245.063763,123.564379 229.457753,136.411268 204.118035,144.807565 L204.118035,144.807565 Z M193.603754,165.642007 C196.165567,178.582766 196.531475,190.282717 194.834536,199.429057 C193.309843,207.64764 190.243595,213.12715 186.452366,215.321689 C178.384612,219.991462 161.131788,213.921395 142.525146,197.909832 C140.392124,196.074366 138.243609,194.114502 136.088259,192.040261 C143.301619,184.151133 150.510878,174.979732 157.54698,164.793993 C169.922699,163.695814 181.614905,161.900447 192.218042,159.449363 C192.740247,161.555956 193.204126,163.621993 193.603754,165.642007 L193.603754,165.642007 Z M87.2761866,214.514686 C79.3938934,217.298414 73.1160375,217.378157 69.3211631,215.189998 C61.2461189,210.532528 57.8891498,192.554265 62.4682434,168.438039 C62.9927272,165.676183 63.6170041,162.839142 64.3365173,159.939216 C74.8234575,162.258154 86.4299951,163.926841 98.8353334,164.932519 C105.918826,174.899534 113.336329,184.06091 120.811247,192.08264 C119.178102,193.65928 117.551336,195.16028 115.933685,196.574699 C106.001303,205.256705 96.0479605,211.41654 87.2761866,214.514686 L87.2761866,214.514686 Z M50.3486141,144.746959 C37.8658105,140.48046 27.5570398,134.935332 20.4908634,128.884403 C14.1414664,123.446815 10.9357817,118.048415 10.9357817,113.667995 C10.9357817,104.34622 24.8334611,92.4562517 48.0123604,84.3748281 C50.8247961,83.3942121 53.7689223,82.4701001 56.8242337,81.6020363 C60.0276398,92.0224477 64.229889,102.917218 69.3011135,113.93411 C64.1642716,125.11459 59.9023288,136.182975 56.6674809,146.725506 C54.489347,146.099407 52.3791089,145.440499 50.3486141,144.746959 L50.3486141,144.746959 Z M62.7270678,60.4878073 C57.9160346,35.9004118 61.1112387,17.3525532 69.1516515,12.6982729 C77.7160924,7.74005624 96.6544653,14.8094222 116.614922,32.5329619 C117.890816,33.6657739 119.171723,34.8514442 120.456275,36.0781256 C113.018267,44.0647686 105.66866,53.1573386 98.6480514,63.0655695 C86.6081646,64.1815215 75.0831931,65.9741531 64.4868907,68.3746571 C63.8206914,65.6948233 63.2305903,63.0619242 62.7270678,60.4878073 L62.7270678,60.4878073 Z M173.153901,87.7550367 C170.620796,83.3796304 168.020249,79.1076627 165.369124,74.9523483 C173.537126,75.9849113 181.362914,77.3555864 188.712066,79.0329319 C186.505679,86.1041206 183.755673,93.4974728 180.518546,101.076741 C178.196419,96.6680702 175.740322,92.2229454 173.153901,87.7550367 L173.153901,87.7550367 Z M128.122121,43.8938899 C133.166461,49.3588189 138.218091,55.4603279 143.186789,62.0803968 C138.179814,61.8439007 133.110868,61.720868 128.000001,61.720868 C122.937434,61.720868 117.905854,61.8411667 112.929865,62.0735617 C117.903575,55.515009 122.99895,49.4217021 128.122121,43.8938899 L128.122121,43.8938899 Z M82.8018984,87.830679 C80.2715265,92.2183886 77.8609975,96.6393627 75.5753239,101.068539 C72.3906004,93.5156998 69.6661103,86.0886276 67.440586,78.9171899 C74.7446255,77.2826781 82.5335049,75.9461789 90.6495601,74.9332099 C87.9610684,79.1268011 85.3391054,83.4302106 82.8018984,87.8297677 L82.8018984,87.830679 L82.8018984,87.830679 Z M90.8833221,153.182899 C82.4979621,152.247395 74.5919739,150.979704 67.289757,149.390303 C69.5508242,142.09082 72.3354636,134.505173 75.5876271,126.789657 C77.8792246,131.215644 80.2993228,135.638441 82.8451877,140.03572 L82.8456433,140.03572 C85.4388987,144.515476 88.1255676,148.90364 90.8833221,153.182899 L90.8833221,153.182899 Z M128.424691,184.213105 C123.24137,178.620587 118.071264,172.434323 113.021912,165.780078 C117.923624,165.972373 122.921029,166.0708 128.000001,166.0708 C133.217953,166.0708 138.376211,165.953235 143.45336,165.727219 C138.468257,172.501308 133.434855,178.697141 128.424691,184.213105 L128.424691,184.213105 Z M180.622896,126.396409 C184.044571,134.195313 186.929004,141.741317 189.219234,148.9164 C181.796719,150.609693 173.782736,151.973534 165.339049,152.986959 C167.996555,148.775595 170.619884,144.430263 173.197646,139.960532 C175.805484,135.438399 178.28163,130.90943 180.622896,126.396409 L180.622896,126.396409 Z M163.724586,134.496971 C159.722835,141.435557 155.614455,148.059271 151.443648,154.311611 C143.847063,154.854776 135.998946,155.134562 128.000001,155.134562 C120.033408,155.134562 112.284171,154.887129 104.822013,154.402745 C100.48306,148.068386 96.285368,141.425078 92.3091341,134.556664 L92.3100455,134.556664 C88.3442923,127.706935 84.6943232,120.799333 81.3870228,113.930466 C84.6934118,107.045648 88.3338117,100.130301 92.276781,93.292874 L92.2758697,93.294241 C96.2293193,86.4385872 100.390102,79.8276317 104.688954,73.5329157 C112.302398,72.9573964 120.109505,72.6571055 127.999545,72.6571055 L128.000001,72.6571055 C135.925583,72.6571055 143.742714,72.9596746 151.353879,73.5402067 C155.587114,79.7888993 159.719645,86.3784378 163.688588,93.2350031 C167.702644,100.168578 171.389978,107.037901 174.724618,113.77508 C171.400003,120.627999 167.720871,127.566587 163.724586,134.496971 L163.724586,134.496971 Z M186.284677,12.3729198 C194.857321,17.3165548 198.191049,37.2542268 192.804953,63.3986692 C192.461372,65.0669011 192.074504,66.7661189 191.654369,68.4881206 C181.03346,66.0374921 169.500286,64.2138746 157.425315,63.0810626 C150.391035,53.0639249 143.101577,43.9572289 135.784778,36.073113 C137.751934,34.1806885 139.716356,32.3762092 141.672575,30.673346 C160.572216,14.2257007 178.236518,7.73185406 186.284677,12.3729198 L186.284677,12.3729198 Z M128.000001,90.8080696 C140.624975,90.8080696 150.859926,101.042565 150.859926,113.667995 C150.859926,126.292969 140.624975,136.527922 128.000001,136.527922 C115.375026,136.527922 105.140075,126.292969 105.140075,113.667995 C105.140075,101.042565 115.375026,90.8080696 128.000001,90.8080696 L128.000001,90.8080696 Z" fill="#00D8FF"> </path> </g> </g>
</g></symbol><symbol id="icon_responsive" viewBox="0 0 48.832 48.832"><g fill="#000000">
<g id="SVGRepo_bgCarrier" stroke-width="0"/>
<g id="SVGRepo_tracerCarrier" stroke-linecap="round" stroke-linejoin="round"/>
<g id="SVGRepo_iconCarrier"> <g> <g id="Layer_20_51_"> <g> <polygon points="15.42,32.814 22.23,32.814 22.23,34.385 15.42,34.385 15.42,35.68 36.838,35.68 36.838,34.385 28.898,34.385 28.898,32.814 37.729,32.814 37.729,29.227 15.42,29.227 "/> <polygon points="9.489,11.231 41.957,11.231 41.957,24.209 44.739,24.209 44.739,8.449 6.707,8.449 6.707,17.14 9.489,17.14 "/> <path d="M0,39.799h14.523V18.013H0V39.799z M7.568,38.705c-0.386,0-0.7-0.312-0.7-0.699c0-0.386,0.314-0.699,0.7-0.699 c0.387,0,0.699,0.312,0.699,0.699S7.955,38.705,7.568,38.705z M2.1,20.113h10.325l-0.001,16.072H2.1V20.113z"/> <path d="M38.715,25.046v15.337h10.117V25.046H38.715z M43.979,25.68c0.121,0,0.22,0.101,0.22,0.221 c0,0.121-0.099,0.222-0.22,0.222c-0.123,0-0.223-0.101-0.223-0.222C43.756,25.78,43.855,25.68,43.979,25.68z M42.665,26.416 h2.623v0.212h-2.623V26.416z M43.891,39.721c-0.291,0-0.524-0.236-0.524-0.525c0-0.29,0.233-0.524,0.524-0.524 c0.289,0,0.525,0.234,0.525,0.524C44.416,39.484,44.18,39.721,43.891,39.721z M47.369,37.915 c-2.368,0.013-6.016,0.022-7.189,0.012V27.382l7.189-0.001V37.915z"/> </g> </g> </g> </g>
</g></symbol><symbol id="icon_rollup" viewBox="0 0 32 32"><g fill="#000000">
<g id="SVGRepo_bgCarrier" stroke-width="0"/>
<g id="SVGRepo_tracerCarrier" stroke-linecap="round" stroke-linejoin="round"/>
<g id="SVGRepo_iconCarrier">

<title>file_type_rollup</title>
<path d="M26.713,11.219A9.147,9.147,0,0,0,25.52,6.685c-2.016-2.075-6.4-2.556-7.492-.01-1.119,2.61,1.879,5.514,3.189,5.284,1.668-.294-.294-4.121-.294-4.121,2.551,4.808,1.962,3.336-2.649,7.752S8.953,29.322,8.266,29.715a.559.559,0,0,1-.093.049H26.261a.43.43,0,0,0,.383-.623L21.915,19.78a.428.428,0,0,1,.167-.564A9.209,9.209,0,0,0,26.713,11.219Z" style="fill:url(#a)"/>
<path d="M26.713,11.219A9.147,9.147,0,0,0,25.52,6.685c-2.016-2.075-6.4-2.556-7.492-.01-1.119,2.61,1.879,5.514,3.189,5.284,1.668-.294-.294-4.121-.294-4.121,2.551,4.808,1.962,3.336-2.649,7.752S8.953,29.322,8.266,29.715a.559.559,0,0,1-.093.049H26.261a.43.43,0,0,0,.383-.623L21.915,19.78a.428.428,0,0,1,.167-.564A9.209,9.209,0,0,0,26.713,11.219Z" style="fill:url(#b)"/>
<path d="M8.266,29.715c.687-.392,5.4-9.714,10.008-14.13s5.2-2.944,2.649-7.752c0,0-9.763,13.688-13.3,20.458" style="fill:url(#c)"/>
<path d="M9.639,17.449C16.233,5.326,17.1,4.1,20.531,4.1a6.253,6.253,0,0,1,4.8,2.262A9.21,9.21,0,0,0,17.636,2H6.436a.427.427,0,0,0-.427.427V25A67.956,67.956,0,0,1,9.639,17.449Z" style="fill:url(#d)"/>
<path d="M18.274,15.585C13.662,20,8.953,29.322,8.266,29.715a2.076,2.076,0,0,1-2.453-.245c-.653-.731-1.668-1.913,3.827-12.02C16.233,5.326,17.1,4.1,20.531,4.1a6.253,6.253,0,0,1,4.8,2.262c.064.1.128.211.191.319-2.016-2.075-6.4-2.556-7.492-.01-1.119,2.61,1.879,5.514,3.189,5.284,1.668-.294-.294-4.121-.294-4.121C23.475,12.641,22.886,11.169,18.274,15.585Z" style="fill:url(#e)"/>
<path d="M10.179,17.989C16.773,5.866,17.636,4.644,21.071,4.644A6.3,6.3,0,0,1,25.192,6.2,6.253,6.253,0,0,0,20.531,4.1c-3.434,0-4.3,1.222-10.892,13.345C4.145,27.556,5.16,28.738,5.813,29.469a1.607,1.607,0,0,0,.314.265C5.553,28.9,5.3,26.962,10.179,17.989Z" style="opacity:0.300000011920929;isolation:isolate;fill:url(#f)"/>
</g>
</g></symbol><symbol id="icon_sass" viewBox="0 -32 256 256" preserveAspectRatio="xMidYMid"><g fill="#000000">
<g id="SVGRepo_bgCarrier" stroke-width="0"/>
<g id="SVGRepo_tracerCarrier" stroke-linecap="round" stroke-linejoin="round"/>
<g id="SVGRepo_iconCarrier"> <g fill="#CD6799"> <path d="M220.281239,110.513661 C211.374863,110.560291 203.634244,112.705282 197.152641,115.876138 C194.774499,111.166485 192.396357,106.969763 191.976685,103.892168 C191.510383,100.301639 190.95082,98.1100182 191.510383,93.8200364 C192.069945,89.5300546 194.587978,83.4214936 194.541348,82.9551913 C194.494718,82.4888889 193.981785,80.2972678 188.852459,80.2506375 C183.723133,80.2040073 179.29326,81.2298725 178.780328,82.5821494 C178.267395,83.9344262 177.28816,87.0120219 176.635337,90.182878 C175.749362,94.8459016 166.376685,111.492896 161.014208,120.21275 C159.288889,116.808743 157.796721,113.824408 157.47031,111.446266 C157.004007,107.855738 156.444444,105.664117 157.004007,101.374135 C157.56357,97.084153 160.081603,90.975592 160.034973,90.5092896 C159.988342,90.0429872 159.47541,87.8513661 154.346084,87.8047359 C149.216758,87.7581056 144.786885,88.7839709 144.273953,90.1362477 C143.76102,91.4885246 143.201457,94.6593807 142.128962,97.7369763 C141.056466,100.814572 128.606193,128.606193 125.342077,135.78725 C123.663388,139.471038 122.217851,142.408743 121.191985,144.413843 L121.191985,144.413843 C121.191985,144.413843 121.145355,144.553734 121.005464,144.786885 C120.11949,146.512204 119.606557,147.444809 119.606557,147.444809 C119.606557,147.444809 119.606557,147.444809 119.606557,147.491439 C118.907104,148.750455 118.16102,149.916211 117.787978,149.916211 C117.508197,149.916211 116.995264,146.558834 117.881239,141.989071 C119.746448,132.336612 124.176321,117.321676 124.12969,116.808743 C124.12969,116.528962 124.969035,113.917668 121.238616,112.565392 C117.601457,111.213115 116.295811,113.451366 115.969399,113.451366 C115.642987,113.451366 115.409836,114.24408 115.409836,114.24408 C115.409836,114.24408 119.466667,97.3639344 107.669217,97.3639344 C100.301639,97.3639344 90.1362477,105.430965 85.1001821,112.705282 C81.929326,114.430601 75.1679417,118.11439 67.940255,122.07796 C65.189071,123.616758 62.3446266,125.155556 59.6867031,126.601093 C59.5001821,126.414572 59.3136612,126.181421 59.1271403,125.9949 C44.8582878,110.746812 18.4655738,99.9752277 19.5846995,79.5045537 C20.0043716,72.0437158 22.5690346,52.4590164 70.2717668,28.6775956 C109.534426,9.32604736 140.776685,14.6885246 146.185792,26.579235 C153.926412,43.5526412 129.445537,75.0746812 88.8772313,79.6444444 C73.3959927,81.3697632 65.2823315,75.4010929 63.2306011,73.1628415 C61.0856102,70.8313297 60.7591985,70.691439 59.9664845,71.1577413 C58.6608379,71.8571949 59.5001821,73.9555556 59.9664845,75.1679417 C61.1788707,78.3387978 66.168306,83.9344262 74.6083789,86.6856102 C82.0692168,89.1103825 100.208379,90.4626594 122.17122,81.9759563 C146.745355,72.463388 165.957013,46.0240437 160.314754,23.8746812 C154.672495,1.3989071 117.368306,-6.01530055 82.0692168,6.52823315 C61.0856102,13.989071 38.3300546,25.7398907 21.9628415,41.0346084 C2.51803279,59.2204007 -0.559562842,75.028051 0.699453552,81.6495446 C5.22258652,105.151184 37.6306011,120.445902 50.5938069,131.777049 C49.9409836,132.150091 49.3347905,132.476503 48.8218579,132.756284 C42.340255,135.97377 17.6262295,148.890346 11.4710383,162.553005 C4.47650273,178.034244 12.5901639,189.13224 17.9526412,190.624408 C34.5996357,195.240801 51.7129326,186.940619 60.8990893,173.23133 C70.0852459,159.52204 68.9661202,141.70929 64.7227687,133.548998 C64.6761384,133.455738 64.6295082,133.362477 64.5362477,133.269217 C66.2149362,132.289982 67.940255,131.264117 69.6189435,130.284882 C72.9296903,128.326412 76.1938069,126.507832 78.9916211,125.015665 C77.4061931,129.352277 76.2404372,134.528233 75.6808743,141.989071 C74.9814208,150.755556 78.571949,162.133333 83.2816029,166.609836 C85.3799636,168.568306 87.8513661,168.614936 89.4367942,168.614936 C94.9391621,168.614936 97.4105647,164.045173 100.161749,158.636066 C103.519126,152.014572 106.550091,144.320583 106.550091,144.320583 C106.550091,144.320583 102.773042,165.117668 113.031694,165.117668 C116.762113,165.117668 120.539162,160.268124 122.217851,157.796721 L122.217851,157.843352 C122.217851,157.843352 122.311111,157.703461 122.497632,157.377049 C122.870674,156.770856 123.103825,156.397814 123.103825,156.397814 L123.103825,156.304554 C124.595993,153.69326 127.95337,147.77122 132.942805,137.93224 C139.377778,125.248816 145.579599,109.394536 145.579599,109.394536 C145.579599,109.394536 146.139162,113.264845 148.051002,119.699818 C149.170128,123.476867 151.501639,127.626958 153.366849,131.637158 C151.874681,133.735519 150.942077,134.901275 150.942077,134.901275 C150.942077,134.901275 150.942077,134.901275 150.988707,134.947905 C149.776321,136.533333 148.470674,138.258652 147.025137,139.937341 C141.942441,145.999271 135.88051,152.947177 135.041166,154.952277 C134.061931,157.330419 134.295082,159.055738 136.160291,160.454645 C137.512568,161.48051 139.937341,161.620401 142.408743,161.48051 C146.978506,161.154098 150.195993,160.034973 151.781421,159.335519 C154.252823,158.449545 157.143898,157.097268 159.848452,155.092168 C164.837887,151.408379 167.868852,146.139162 167.589071,139.191257 C167.44918,135.367577 166.190164,131.543898 164.651366,127.95337 C165.117668,127.300546 165.537341,126.647723 166.003643,125.9949 C173.884153,114.477231 179.992714,101.840437 179.992714,101.840437 C179.992714,101.840437 180.552277,105.710747 182.464117,112.145719 C183.396721,115.409836 185.308561,118.953734 186.98725,122.404372 C179.573042,128.419672 175.003279,135.414208 173.37122,139.983971 C170.433515,148.470674 172.718397,152.294353 177.055009,153.180328 C179.013479,153.6 181.811293,152.667395 183.863024,151.781421 C186.474317,150.942077 189.551913,149.496539 192.489617,147.351548 C197.479053,143.66776 202.281967,138.538434 202.002186,131.590528 C201.862295,128.419672 201.022951,125.295446 199.857195,122.264481 C206.152277,119.653188 214.265938,118.20765 224.617851,119.420036 C246.813843,122.03133 251.197086,135.88051 250.357741,141.70929 C249.518397,147.538069 244.855373,150.708925 243.316576,151.68816 C241.777778,152.667395 241.264845,152.993807 241.404736,153.69326 C241.591257,154.719126 242.337341,154.672495 243.642987,154.485974 C245.461566,154.159563 255.300546,149.776321 255.720219,139.051366 C256.419672,125.342077 243.363206,110.37377 220.281239,110.513661 L220.281239,110.513661 Z M49.0550091,168.241894 C41.6874317,176.262295 31.4287796,179.29326 26.9989071,176.728597 C22.242623,173.977413 24.1078324,162.133333 33.1540984,153.64663 C38.6564663,148.470674 45.7442623,143.66776 50.4539162,140.730055 C51.5264117,140.077231 53.1118397,139.144627 55.0236794,137.978871 C55.3500911,137.79235 55.536612,137.699089 55.536612,137.699089 L55.536612,137.699089 C55.9096539,137.465938 56.2826958,137.232787 56.6557377,136.999636 C59.9664845,149.123497 56.7956284,159.801821 49.0550091,168.241894 L49.0550091,168.241894 Z M102.679781,131.777049 C100.115118,138.025501 94.7526412,154.019672 91.4885246,153.133698 C88.6907104,152.387614 86.9653916,140.263752 90.9289617,128.279781 C92.9340619,122.264481 97.1774135,115.083424 99.648816,112.28561 C103.659016,107.809107 108.088889,106.31694 109.161384,108.135519 C110.513661,110.513661 104.265209,127.860109 102.679781,131.777049 L102.679781,131.777049 Z M146.931876,152.947177 C145.859381,153.50674 144.833515,153.879781 144.367213,153.6 C144.040801,153.413479 144.833515,152.667395 144.833515,152.667395 C144.833515,152.667395 150.382514,146.698725 152.574135,143.994171 C153.833151,142.408743 155.325319,140.543534 156.910747,138.445173 L156.910747,139.051366 C156.910747,146.185792 150.009472,150.988707 146.931876,152.947177 L146.931876,152.947177 Z M181.065209,145.159927 C180.272495,144.600364 180.412386,142.735155 183.07031,136.906375 C184.096175,134.621494 186.520947,130.797814 190.671038,127.114026 C191.137341,128.606193 191.463752,130.05173 191.417122,131.404007 C191.370492,140.403643 184.935519,143.76102 181.065209,145.159927 L181.065209,145.159927 Z"> </path> </g> </g>
</g></symbol><symbol id="icon_twitter" viewBox="0 0 32 32"><g fill="currentColor">
  <path d="M29.333 7.83998C28.333 8.33298 27.333 8.50698 26.16 8.66698C27.333 7.99998 28.16 6.99998 28.493 5.66698C27.488 6.27498 26.317 6.73798 25.07 6.98898L25 7.00098C23.969 5.98698 22.56 5.35498 21.004 5.33398H21C18.16 5.33398 15.667 7.84098 15.667 10.841C15.667 11.334 15.667 11.668 15.84 12.001C11.262 11.823 7.22103 9.66398 4.52903 6.36198L4.50703 6.33398C4.08203 7.05998 3.83103 7.93198 3.83103 8.86298C3.83103 8.97198 3.83403 9.08098 3.84103 9.18898L3.84003 9.17398C3.87403 11.052 4.84903 12.695 6.31303 13.655L6.33403 13.668C5.49403 13.668 4.66703 13.335 3.82703 13.001C3.82703 15.668 5.66703 17.841 8.16003 18.334C7.66703 18.507 7.16003 18.507 6.66703 18.507C6.33403 18.507 6.00003 18.507 5.66703 18.334C6.33403 20.507 8.33403 22.174 10.84 22.174C9.04003 23.629 6.72403 24.509 4.20303 24.509C4.13203 24.509 4.06103 24.508 3.99003 24.507H4.00103H2.66803C5.03303 26.016 7.90403 26.936 10.984 27H11.001C21.001 27 26.508 18.667 26.508 11.493V10.826C27.655 10.036 28.601 9.03898 29.311 7.88198L29.335 7.83998H29.333Z" fill="currentColor"/>
</g></symbol><symbol id="icon_typescript" viewBox="0 0 256 256" preserveAspectRatio="xMidYMid"><g fill="#000000">
<g id="SVGRepo_bgCarrier" stroke-width="0"/>
<g id="SVGRepo_tracerCarrier" stroke-linecap="round" stroke-linejoin="round"/>
<g id="SVGRepo_iconCarrier"> <g> <polygon fill="#007ACC" transform="translate(128.000000, 128.000000) scale(1, -1) translate(-128.000000, -128.000000) " points="0 128 0 0 128 0 256 0 256 128 256 256 128 256 0 256"> </polygon> <path d="M146.658132,223.436863 L146.739401,212.953054 L130.079084,212.953054 L113.418767,212.953054 L113.418767,165.613371 L113.418767,118.273689 L101.63464,118.273689 L89.8505126,118.273689 L89.8505126,165.613371 L89.8505126,212.953054 L73.1901951,212.953054 L56.5298776,212.953054 L56.5298776,223.233689 C56.5298776,228.922577 56.6517824,233.676863 56.8143221,233.798768 C56.9362269,233.961308 77.2130522,234.042577 101.797179,234.001943 L146.536227,233.880038 L146.658132,223.436863 Z" fill="#FFFFFF" transform="translate(101.634640, 176.142993) rotate(-180.000000) translate(-101.634640, -176.142993) "> </path> <path d="M206.566631,234.272145 C213.068219,232.646748 218.025679,229.761668 222.57679,225.048018 C224.933616,222.528653 228.428219,217.936907 228.712663,216.839764 C228.793933,216.514684 217.659965,209.037859 210.914568,204.852462 C210.670758,204.689922 209.69552,205.74643 208.598377,207.371827 C205.306949,212.166748 201.852981,214.239129 196.570441,214.604843 C188.809171,215.133097 183.811076,211.069605 183.851711,204.283573 C183.851711,202.292462 184.136155,201.114049 184.948854,199.488653 C186.65552,195.953414 189.825044,193.840399 199.7806,189.533097 C218.106949,181.649922 225.949489,176.448653 230.825679,169.053097 C236.270758,160.804208 237.489806,147.638494 233.792028,137.845478 C229.728536,127.199129 219.651076,119.966113 205.469489,117.568653 C201.080917,116.796589 190.678377,116.918494 185.964727,117.771827 C175.684092,119.600399 165.931711,124.679764 159.917743,131.343891 C157.560917,133.944526 152.969171,140.730557 153.253616,141.218176 C153.37552,141.380716 154.432028,142.030875 155.610441,142.721668 C156.748219,143.371827 161.05552,145.850557 165.119012,148.207383 L172.473933,152.474049 L174.01806,150.198494 C176.171711,146.907065 180.885362,142.396589 183.729806,140.893097 C191.897425,136.585795 203.112663,137.195319 208.639012,142.15278 C210.995838,144.30643 211.971076,146.541351 211.971076,149.83278 C211.971076,152.799129 211.605362,154.099446 210.061235,156.334367 C208.070123,159.178811 204.006631,161.576272 192.466314,166.574367 C179.259965,172.263256 173.571076,175.798494 168.369806,181.406113 C165.362822,184.656907 162.518377,189.858176 161.339965,194.206113 C160.364727,197.822621 160.120917,206.884208 160.892981,210.541351 C163.61552,223.300716 173.245996,232.199764 187.143139,234.841034 C191.653616,235.694367 202.137425,235.369287 206.566631,234.272145 Z" fill="#FFFFFF" transform="translate(194.578507, 176.190240) scale(1, -1) translate(-194.578507, -176.190240) "> </path> </g> </g>
</g></symbol><symbol id="icon_uzumaki" viewBox="0 0 100 100">
  <metadata>
    <rdf:RDF>
      <cc:Work rdf:about="">
        <dc:format>image/svg+xml</dc:format>
        <dc:type rdf:resource="http://purl.org/dc/dcmitype/StillImage"/>
        <dc:title/>
      </cc:Work>
    </rdf:RDF>
  </metadata>
  <g transform="translate(377.83 -78.047)">
    <g transform="matrix(1.136 0 0 1.136 51.434 -24.264)" fill="none" stroke="#000" stroke-linecap="round" stroke-linejoin="round">
      <path transform="matrix(1.3671 0 0 1.2562 327.7 -70.559)" d="m-453.57 162.9c0 18.245-13.591 33.036-30.357 33.036s-30.357-14.791-30.357-33.036 13.591-33.036 30.357-33.036 30.357 14.791 30.357 33.036z" stroke-width="3.8369"/>
      <path d="m-334.64 132.18c-5.4884 10.453 2.3355 16.674 7.1429 16.607 10.279-0.14393 13.837-10.49 13.929-15 0.17303-8.4798-6.463-20.862-19.643-20.893-6.7796-0.0158-23.316 4.6008-23.214 23.929 0.13984 26.488 27.404 37.307 43.214 33.036" stroke-width="5.0282"/>
    </g>
  </g>
</symbol><symbol id="icon_webpack" viewBox="-17 0 290 290" preserveAspectRatio="xMidYMid"><g fill="#000000">
<g id="SVGRepo_bgCarrier" stroke-width="0"/>
<g id="SVGRepo_tracerCarrier" stroke-linecap="round" stroke-linejoin="round"/>
<g id="SVGRepo_iconCarrier"> <g> <polygon fill="#FFFFFF" points="128 0.0483018868 256 72.4528302 256 217.310189 128 289.714717 0 217.310189 0 72.4528302"> </polygon> <path d="M233.153208,212.286792 L132.250566,269.427925 L132.250566,224.990189 L195.139623,190.357736 L233.153208,212.286792 Z M240.060377,206.055849 L240.060377,86.6535849 L203.157736,107.954717 L203.157736,184.754717 L240.060377,206.055849 Z M22.4603774,212.286792 L123.363019,269.379623 L123.363019,224.941887 L60.4739623,190.357736 L22.4603774,212.286792 L22.4603774,212.286792 Z M15.5532075,206.055849 L15.5532075,86.6535849 L52.4558491,107.954717 L52.4558491,184.754717 L15.5532075,206.055849 L15.5532075,206.055849 Z M19.8520755,78.925283 L123.363019,20.3833962 L123.363019,63.3720755 L57.0445283,99.84 L56.5132075,100.129811 L19.8520755,78.925283 L19.8520755,78.925283 Z M235.713208,78.925283 L132.250566,20.3833962 L132.250566,63.3720755 L198.520755,99.8883019 L199.052075,100.178113 L235.713208,78.925283 L235.713208,78.925283 Z" fill="#8ED6FB"> </path> <path d="M123.363019,214.846792 L61.3433962,180.697358 L61.3433962,113.123019 L123.363019,148.914717 L123.363019,214.846792 L123.363019,214.846792 Z M132.250566,214.846792 L194.270189,180.74566 L194.270189,113.123019 L132.250566,148.914717 L132.250566,214.846792 Z M65.4973585,105.298113 L127.806792,71.0520755 L190.067925,105.298113 L127.806792,141.234717 L65.4973585,105.298113 L65.4973585,105.298113 Z" fill="#1C78C0"> </path> </g> </g>
</g></symbol></svg>